<svg width="32" height="32" viewBox="0 0 32 32" fill="none" xmlns="http://www.w3.org/2000/svg">
<rect width="32" height="32" rx="4" fill="#1D4ED8"/>
<path d="M9.22289 6.25C8.72589 6.25 8.24889 6.448 7.89789 6.8L6.59789 8.098C5.92611 8.76853 5.5336 9.66884 5.49949 10.6174C5.46539 11.5659 5.79224 12.4921 6.41413 13.2091C7.03602 13.9262 7.90667 14.3807 8.8505 14.4811C9.79432 14.5815 10.7411 14.3202 11.4999 13.75C12.1487 14.2375 12.9384 14.5007 13.7499 14.5C14.5939 14.5 15.3739 14.22 15.9999 13.75C16.6259 14.22 17.4059 14.5 18.2499 14.5C19.0614 14.5007 19.8511 14.2375 20.4999 13.75C21.2587 14.3202 22.2054 14.5815 23.1493 14.4811C24.0931 14.3807 24.9638 13.9262 25.5856 13.2091C26.2075 12.4921 26.5344 11.5659 26.5003 10.6174C26.4662 9.66884 26.0737 8.76853 25.4019 8.098L24.1019 6.799C23.7504 6.44764 23.2739 6.25017 22.7769 6.25H9.22289Z" fill="#FAFAFA"/>
<path fill-rule="evenodd" clip-rule="evenodd" d="M7 24.2499V15.4949C8.42 16.1689 10.08 16.1679 11.5 15.4949C12.2031 15.8284 12.9718 16.0009 13.75 15.9999C14.554 15.9999 15.318 15.8179 16 15.4939C16.7031 15.8278 17.4717 16.0006 18.25 15.9999C19.054 15.9999 19.817 15.8179 20.5 15.4939C21.2033 15.8269 21.9717 15.9997 22.7499 15.9999C23.528 16.0001 24.2966 15.8276 25 15.4949V24.2499H25.75C25.9489 24.2499 26.1397 24.3289 26.2803 24.4696C26.421 24.6102 26.5 24.801 26.5 24.9999C26.5 25.1988 26.421 25.3896 26.2803 25.5302C26.1397 25.6709 25.9489 25.7499 25.75 25.7499H6.25C6.05109 25.7499 5.86032 25.6709 5.71967 25.5302C5.57902 25.3896 5.5 25.1988 5.5 24.9999C5.5 24.801 5.57902 24.6102 5.71967 24.4696C5.86032 24.3289 6.05109 24.2499 6.25 24.2499H7ZM10 18.2499C10 18.051 10.079 17.8602 10.2197 17.7196C10.3603 17.5789 10.5511 17.4999 10.75 17.4999H13.75C13.9489 17.4999 14.1397 17.5789 14.2803 17.7196C14.421 17.8602 14.5 18.051 14.5 18.2499V21.2499C14.5 21.4488 14.421 21.6396 14.2803 21.7802C14.1397 21.9209 13.9489 21.9999 13.75 21.9999H10.75C10.5511 21.9999 10.3603 21.9209 10.2197 21.7802C10.079 21.6396 10 21.4488 10 21.2499V18.2499ZM18.25 17.4999C18.0511 17.4999 17.8603 17.5789 17.7197 17.7196C17.579 17.8602 17.5 18.051 17.5 18.2499V23.4999C17.5 23.9139 17.836 24.2499 18.25 24.2499H21.25C21.4489 24.2499 21.6397 24.1709 21.7803 24.0302C21.921 23.8896 22 23.6988 22 23.4999V18.2499C22 18.051 21.921 17.8602 21.7803 17.7196C21.6397 17.5789 21.4489 17.4999 21.25 17.4999H18.25Z" fill="#FAFAFA"/>
</svg>
