<svg width="32" height="32" viewBox="0 0 32 32" fill="none" xmlns="http://www.w3.org/2000/svg">
<rect width="32" height="32" fill="#0F172A"/>
<line x1="29" y1="2" x2="29" y2="30" stroke="#FED7AA" stroke-width="2"/>
<path d="M3.74698 12.2727L6.17596 19.3807H6.27397L8.70295 12.2727H10.1262L6.98562 21H5.46431L2.32369 12.2727H3.74698ZM18.5339 16.6364C18.5339 17.5682 18.3635 18.3693 18.0226 19.0398C17.6816 19.7074 17.2143 20.2216 16.6206 20.5824C16.0297 20.9403 15.3578 21.1193 14.6049 21.1193C13.8493 21.1193 13.1745 20.9403 12.5808 20.5824C11.9899 20.2216 11.524 19.706 11.1831 19.0355C10.8422 18.3651 10.6717 17.5653 10.6717 16.6364C10.6717 15.7045 10.8422 14.9048 11.1831 14.2372C11.524 13.5668 11.9899 13.0526 12.5808 12.6946C13.1745 12.3338 13.8493 12.1534 14.6049 12.1534C15.3578 12.1534 16.0297 12.3338 16.6206 12.6946C17.2143 13.0526 17.6816 13.5668 18.0226 14.2372C18.3635 14.9048 18.5339 15.7045 18.5339 16.6364ZM17.2299 16.6364C17.2299 15.9261 17.1149 15.3281 16.8848 14.8423C16.6575 14.3537 16.345 13.9844 15.9473 13.7344C15.5524 13.4815 15.1049 13.3551 14.6049 13.3551C14.1021 13.3551 13.6532 13.4815 13.2583 13.7344C12.8635 13.9844 12.551 14.3537 12.3208 14.8423C12.0936 15.3281 11.9799 15.9261 11.9799 16.6364C11.9799 17.3466 12.0936 17.946 12.3208 18.4347C12.551 18.9205 12.8635 19.2898 13.2583 19.5426C13.6532 19.7926 14.1021 19.9176 14.6049 19.9176C15.1049 19.9176 15.5524 19.7926 15.9473 19.5426C16.345 19.2898 16.6575 18.9205 16.8848 18.4347C17.1149 17.946 17.2299 17.3466 17.2299 16.6364ZM20.8574 12.2727L22.9455 15.6861H23.0137L25.1017 12.2727H26.6273L23.9086 16.6364L26.6444 21H25.1103L23.0137 17.6335H22.9455L20.8489 21H19.3148L22.0975 16.6364L19.3319 12.2727H20.8574Z" fill="white"/>
</svg>
